<?xml version="1.0" standalone="no"?>
<!DOCTYPE svg PUBLIC "-//W3C//DTD SVG 20010904//EN"
 "http://www.w3.org/TR/2001/REC-SVG-20010904/DTD/svg10.dtd">
<svg version="1.0" xmlns="http://www.w3.org/2000/svg"
 width="323.000000pt" height="323.000000pt" viewBox="0 0 323.000000 323.000000"
 preserveAspectRatio="xMidYMid meet">
<metadata>
Created by potrace 1.14, written by Peter Selinger 2001-2017
</metadata>
<g transform="translate(0.000000,323.000000) scale(0.100000,-0.100000)"
fill="#000000" stroke="none">
<path d="M775 2242 c-31 -6 -43 -20 -61 -70 -9 -26 -27 -69 -41 -95 -19 -36
-22 -52 -14 -60 6 -6 11 -18 11 -27 0 -8 23 -61 50 -118 46 -94 52 -103 73
-97 35 11 39 20 19 46 -39 49 -82 137 -82 166 0 43 11 47 31 13 11 -17 27 -30
37 -30 10 0 24 -6 32 -12 7 -7 5 2 -6 21 -10 19 -28 39 -39 45 -11 6 -26 19
-33 29 -7 9 -20 17 -28 17 -23 0 -16 19 14 34 16 8 34 21 40 29 21 24 69 8
103 -34 35 -44 51 -50 49 -16 -4 41 0 54 25 92 15 20 24 40 21 43 -3 2 -22 6
-43 8 -21 2 -60 7 -88 12 -27 4 -59 6 -70 4z"/>
<path d="M625 2178 c-16 -6 -52 -26 -80 -45 -27 -18 -56 -33 -63 -33 -7 0 -41
-26 -75 -58 -35 -33 -76 -62 -92 -66 -28 -7 -44 -21 -45 -38 0 -15 23 -7 53
18 20 17 33 22 35 15 3 -9 10 -7 22 4 10 9 43 27 74 39 53 22 245 153 246 169
0 10 -39 7 -75 -5z"/>
<path d="M547 1998 c-59 -46 -85 -62 -77 -46 7 12 19 31 28 41 21 23 0 23 -53
-2 -60 -27 -131 -110 -176 -206 -21 -45 -39 -87 -39 -91 0 -4 17 8 38 27 46
44 112 94 112 84 0 -3 -39 -63 -86 -132 l-87 -125 6 -58 c3 -33 17 -85 31
-117 33 -70 105 -168 116 -156 5 4 22 42 38 83 17 41 46 109 65 152 20 42 33
78 31 81 -3 3 5 25 17 49 13 23 22 49 20 57 -4 24 9 81 19 81 6 0 10 -7 10
-15 0 -26 16 -16 44 25 l27 41 26 -21 c14 -11 31 -20 38 -20 7 0 16 -12 20
-27 l6 -27 21 32 20 32 -40 68 c-22 37 -49 86 -61 110 -25 50 -39 50 -57 1 -7
-19 -13 -29 -13 -23 -1 7 10 42 24 79 14 37 25 74 23 80 -2 8 -40 -16 -91 -57z"/>
<path d="M955 1973 c0 -60 1 -63 12 -37 15 37 15 53 0 81 -10 19 -12 13 -12
-44z"/>
<path d="M1620 1870 l0 -120 48 0 c26 0 53 5 60 12 16 16 16 200 0 216 -7 7
-34 12 -60 12 l-48 0 0 -120z m80 0 c0 -73 -2 -80 -20 -80 -18 0 -20 7 -20 80
0 73 2 80 20 80 18 0 20 -7 20 -80z"/>
<path d="M1800 1870 l0 -120 60 0 c53 0 60 2 60 20 0 17 -7 20 -40 20 -38 0
-40 2 -40 30 0 27 3 30 30 30 23 0 30 4 30 20 0 16 -7 20 -30 20 -27 0 -30 3
-30 30 0 28 2 30 40 30 33 0 40 3 40 20 0 18 -7 20 -60 20 l-60 0 0 -120z"/>
<path d="M1980 1870 c0 -113 1 -120 20 -120 17 0 20 7 20 50 0 43 3 50 20 50
17 0 20 -7 20 -50 0 -43 3 -50 20 -50 19 0 20 7 20 120 0 113 -1 120 -20 120
-17 0 -20 -7 -20 -50 0 -43 -3 -50 -20 -50 -17 0 -20 7 -20 50 0 43 -3 50 -20
50 -19 0 -20 -7 -20 -120z"/>
<path d="M2160 1870 c0 -113 1 -120 20 -120 19 0 20 7 20 120 0 113 -1 120
-20 120 -19 0 -20 -7 -20 -120z"/>
<path d="M2264 1963 c3 -16 8 -62 11 -103 8 -97 12 -110 35 -110 19 0 25 10
36 73 10 57 20 53 33 -14 11 -53 15 -60 34 -57 20 3 23 12 34 98 16 135 16
140 -6 140 -16 0 -20 -11 -28 -67 l-9 -68 -13 68 c-18 90 -40 89 -61 -3 -13
-57 -15 -61 -17 -30 -7 81 -13 100 -34 100 -17 0 -20 -5 -15 -27z"/>
<path d="M2565 1978 c-6 -20 -45 -206 -45 -218 0 -21 39 -10 42 13 2 15 11 23
29 25 21 2 28 -2 33 -22 9 -35 49 -38 41 -3 -14 64 -45 207 -45 212 0 11 -51
4 -55 -7z m44 -130 c0 -10 -6 -18 -14 -18 -16 0 -19 28 -8 70 l7 25 7 -30 c4
-16 7 -38 8 -47z"/>
<path d="M2730 1870 l0 -120 55 0 c48 0 55 2 55 20 0 16 -7 20 -35 20 l-35 0
0 100 c0 93 -1 100 -20 100 -19 0 -20 -7 -20 -120z"/>
<path d="M2950 1985 c0 -8 -40 -196 -47 -218 -4 -15 0 -18 19 -15 15 2 24 11
26 26 5 32 55 28 60 -5 4 -28 42 -33 41 -5 0 9 -10 62 -22 117 -21 95 -24 100
-50 103 -15 2 -27 1 -27 -3z m40 -127 c0 -19 -5 -28 -16 -28 -12 0 -15 6 -10
23 3 12 6 31 6 42 0 32 20 -4 20 -37z"/>
<path d="M1189 1954 c-11 -14 -9 -23 15 -62 48 -83 68 -133 78 -203 17 -114 1
-125 -69 -49 -25 28 -52 50 -59 50 -22 0 -16 -46 11 -100 19 -38 25 -65 25
-115 0 -69 8 -94 43 -133 22 -23 21 -38 -8 -127 -14 -44 87 84 122 154 32 65
38 87 41 161 5 106 -23 222 -75 307 -20 32 -36 64 -36 71 0 6 -2 10 -5 7 -2
-2 -18 9 -34 25 -35 35 -32 34 -49 14z"/>
<path d="M1160 1858 c0 -21 89 -162 98 -154 7 7 -18 77 -46 129 -26 49 -52 62
-52 25z"/>
<path d="M892 1788 c-29 -12 -76 -42 -104 -66 l-50 -46 39 -32 c22 -18 48 -51
58 -74 45 -101 195 -38 195 83 l0 21 -16 -22 c-19 -27 -30 -28 -37 -2 -6 22
-36 26 -68 9 -16 -8 -20 -19 -17 -46 1 -21 -2 -38 -8 -40 -12 -4 -16 2 -45 86
l-19 55 22 24 c32 34 71 52 113 52 22 0 34 4 30 10 -9 15 -33 11 -93 -12z"/>
<path d="M1057 1348 c-14 -18 -31 -47 -40 -63 -11 -22 -27 -34 -62 -44 -56
-16 -65 -33 -37 -71 19 -25 20 -30 6 -41 -19 -16 -44 -63 -44 -84 0 -19 30
-19 100 3 l54 18 2 44 c3 76 14 103 69 160 77 81 79 100 9 107 -27 3 -37 -2
-57 -29z"/>
<path d="M1200 1232 c0 -6 -16 -32 -36 -57 -39 -52 -41 -63 -6 -35 23 19 57
88 48 98 -3 3 -6 0 -6 -6z"/>
</g>
</svg>
